<?xml version="1.0" encoding="UTF-8" standalone="no"?>
<!DOCTYPE svg PUBLIC "-//W3C//DTD SVG 1.1//EN"
 "http://www.w3.org/Graphics/SVG/1.1/DTD/svg11.dtd">
<!-- Generated by graphviz version 2.38.0 (20140413.2041)
 -->
<!-- Title: %3 Pages: 1 -->
<svg width="277pt" height="404pt"
 viewBox="0.00 0.00 277.28 404.00" xmlns="http://www.w3.org/2000/svg" xmlns:xlink="http://www.w3.org/1999/xlink">
<g id="graph0" class="graph" transform="scale(1 1) rotate(0) translate(4 400)">
<title>%3</title>
<polygon fill="white" stroke="none" points="-4,4 -4,-400 273.285,-400 273.285,4 -4,4"/>
<!-- image(3通道) -->
<g id="node1" class="node"><title>image(3通道)</title>
<ellipse fill="none" stroke="black" cx="210.79" cy="-378" rx="58.4896" ry="18"/>
<text text-anchor="middle" x="210.79" y="-374.3" font-family="Times New Roman,serif" font-size="14.00">image(3通道)</text>
</g>
<!-- Encoder CNN(3&#45;&gt;128通道) -->
<g id="node2" class="node"><title>Encoder CNN(3&#45;&gt;128通道)</title>
<ellipse fill="none" stroke="black" cx="131.79" cy="-306" rx="111.28" ry="18"/>
<text text-anchor="middle" x="131.79" y="-302.3" font-family="Times New Roman,serif" font-size="14.00">Encoder CNN(3&#45;&gt;128通道)</text>
</g>
<!-- image(3通道)&#45;&gt;Encoder CNN(3&#45;&gt;128通道) -->
<g id="edge1" class="edge"><title>image(3通道)&#45;&gt;Encoder CNN(3&#45;&gt;128通道)</title>
<path fill="none" stroke="black" d="M192.467,-360.765C182.417,-351.86 169.771,-340.654 158.628,-330.78"/>
<polygon fill="black" stroke="black" points="160.644,-327.89 150.838,-323.878 156.002,-333.13 160.644,-327.89"/>
</g>
<!-- MSE(均方差) -->
<g id="node5" class="node"><title>MSE(均方差)</title>
<ellipse fill="none" stroke="black" cx="118.79" cy="-90" rx="59.5901" ry="18"/>
<text text-anchor="middle" x="118.79" y="-86.3" font-family="Times New Roman,serif" font-size="14.00">MSE(均方差)</text>
</g>
<!-- image(3通道)&#45;&gt;MSE(均方差) -->
<g id="edge5" class="edge"><title>image(3通道)&#45;&gt;MSE(均方差)</title>
<path fill="none" stroke="black" d="M228.104,-360.61C237.045,-350.927 247.051,-337.871 251.79,-324 268.18,-276.027 271.491,-196.702 232.79,-144 218.899,-125.083 196.563,-112.707 175.329,-104.714"/>
<polygon fill="black" stroke="black" points="176.279,-101.339 165.684,-101.342 173.969,-107.946 176.279,-101.339"/>
</g>
<!-- sigmoid -->
<g id="node3" class="node"><title>sigmoid</title>
<ellipse fill="none" stroke="black" cx="121.79" cy="-234" rx="39.7935" ry="18"/>
<text text-anchor="middle" x="121.79" y="-230.3" font-family="Times New Roman,serif" font-size="14.00">sigmoid</text>
</g>
<!-- Encoder CNN(3&#45;&gt;128通道)&#45;&gt;sigmoid -->
<g id="edge2" class="edge"><title>Encoder CNN(3&#45;&gt;128通道)&#45;&gt;sigmoid</title>
<path fill="none" stroke="black" d="M129.318,-287.697C128.216,-279.983 126.892,-270.712 125.663,-262.112"/>
<polygon fill="black" stroke="black" points="129.113,-261.509 124.234,-252.104 122.183,-262.499 129.113,-261.509"/>
</g>
<!-- Decoder CNN(128&#45;&gt;3通道) -->
<g id="node4" class="node"><title>Decoder CNN(128&#45;&gt;3通道)</title>
<ellipse fill="none" stroke="black" cx="111.79" cy="-162" rx="111.581" ry="18"/>
<text text-anchor="middle" x="111.79" y="-158.3" font-family="Times New Roman,serif" font-size="14.00">Decoder CNN(128&#45;&gt;3通道)</text>
</g>
<!-- sigmoid&#45;&gt;Decoder CNN(128&#45;&gt;3通道) -->
<g id="edge3" class="edge"><title>sigmoid&#45;&gt;Decoder CNN(128&#45;&gt;3通道)</title>
<path fill="none" stroke="black" d="M119.318,-215.697C118.216,-207.983 116.892,-198.712 115.663,-190.112"/>
<polygon fill="black" stroke="black" points="119.113,-189.509 114.234,-180.104 112.183,-190.499 119.113,-189.509"/>
</g>
<!-- Decoder CNN(128&#45;&gt;3通道)&#45;&gt;MSE(均方差) -->
<g id="edge4" class="edge"><title>Decoder CNN(128&#45;&gt;3通道)&#45;&gt;MSE(均方差)</title>
<path fill="none" stroke="black" d="M113.52,-143.697C114.292,-135.983 115.219,-126.712 116.079,-118.112"/>
<polygon fill="black" stroke="black" points="119.567,-118.403 117.08,-108.104 112.602,-117.706 119.567,-118.403"/>
</g>
<!-- loss -->
<g id="node6" class="node"><title>loss</title>
<ellipse fill="none" stroke="black" cx="118.79" cy="-18" rx="27" ry="18"/>
<text text-anchor="middle" x="118.79" y="-14.3" font-family="Times New Roman,serif" font-size="14.00">loss</text>
</g>
<!-- MSE(均方差)&#45;&gt;loss -->
<g id="edge6" class="edge"><title>MSE(均方差)&#45;&gt;loss</title>
<path fill="none" stroke="black" d="M118.79,-71.6966C118.79,-63.9827 118.79,-54.7125 118.79,-46.1124"/>
<polygon fill="black" stroke="black" points="122.29,-46.1043 118.79,-36.1043 115.29,-46.1044 122.29,-46.1043"/>
</g>
<!-- loss&#45;&gt;Encoder CNN(3&#45;&gt;128通道) -->
<g id="edge7" class="edge"><title>loss&#45;&gt;Encoder CNN(3&#45;&gt;128通道)</title>
<path fill="none" stroke="green" d="M141.389,-27.9942C160.606,-36.6754 187.725,-51.52 204.79,-72 226.769,-98.3776 226.459,-110.254 232.79,-144 235.74,-159.726 238.123,-164.915 232.79,-180 218.358,-220.826 184.302,-258.094 159.721,-281.112"/>
<polygon fill="green" stroke="green" points="157.129,-278.74 152.11,-288.071 161.852,-283.906 157.129,-278.74"/>
</g>
<!-- loss&#45;&gt;Decoder CNN(128&#45;&gt;3通道) -->
<g id="edge8" class="edge"><title>loss&#45;&gt;Decoder CNN(128&#45;&gt;3通道)</title>
<path fill="none" stroke="green" d="M140.661,-28.9901C156.969,-37.7616 178.041,-52.2184 187.79,-72 194.863,-86.3517 195.192,-93.8149 187.79,-108 181.024,-120.968 169.476,-131.41 157.397,-139.485"/>
<polygon fill="green" stroke="green" points="155.23,-136.71 148.568,-144.948 158.913,-142.662 155.23,-136.71"/>
</g>
</g>
</svg>
