<?xml version="1.0" encoding="UTF-8" standalone="no"?>
<!DOCTYPE svg PUBLIC "-//W3C//DTD SVG 1.1//EN"
 "http://www.w3.org/Graphics/SVG/1.1/DTD/svg11.dtd">
<!-- Generated by graphviz version 2.38.0 (20140413.2041)
 -->
<!-- Title: %3 Pages: 1 -->
<svg width="264pt" height="404pt"
 viewBox="0.00 0.00 263.53 404.00" xmlns="http://www.w3.org/2000/svg" xmlns:xlink="http://www.w3.org/1999/xlink">
<g id="graph0" class="graph" transform="scale(1 1) rotate(0) translate(4 400)">
<title>%3</title>
<polygon fill="white" stroke="none" points="-4,4 -4,-400 259.532,-400 259.532,4 -4,4"/>
<!-- image -->
<g id="node1" class="node"><title>image</title>
<ellipse fill="none" stroke="black" cx="203" cy="-378" rx="31.6951" ry="18"/>
<text text-anchor="middle" x="203" y="-374.3" font-family="Times New Roman,serif" font-size="14.00">image</text>
</g>
<!-- Encoder CNN -->
<g id="node2" class="node"><title>Encoder CNN</title>
<ellipse fill="none" stroke="black" cx="138" cy="-306" rx="63.0888" ry="18"/>
<text text-anchor="middle" x="138" y="-302.3" font-family="Times New Roman,serif" font-size="14.00">Encoder CNN</text>
</g>
<!-- image&#45;&gt;Encoder CNN -->
<g id="edge1" class="edge"><title>image&#45;&gt;Encoder CNN</title>
<path fill="none" stroke="black" d="M188.896,-361.811C180.565,-352.839 169.829,-341.278 160.367,-331.087"/>
<polygon fill="black" stroke="black" points="162.809,-328.574 153.44,-323.628 157.68,-333.337 162.809,-328.574"/>
</g>
<!-- MSE(均方差) -->
<g id="node5" class="node"><title>MSE(均方差)</title>
<ellipse fill="none" stroke="black" cx="170" cy="-90" rx="59.5901" ry="18"/>
<text text-anchor="middle" x="170" y="-86.3" font-family="Times New Roman,serif" font-size="14.00">MSE(均方差)</text>
</g>
<!-- image&#45;&gt;MSE(均方差) -->
<g id="edge5" class="edge"><title>image&#45;&gt;MSE(均方差)</title>
<path fill="none" stroke="black" d="M205.843,-359.871C207.416,-349.519 209.208,-336.04 210,-324 215.275,-243.774 212.584,-221.719 192,-144 189.653,-135.14 186.152,-125.803 182.629,-117.476"/>
<polygon fill="black" stroke="black" points="185.797,-115.985 178.551,-108.255 179.395,-118.816 185.797,-115.985"/>
</g>
<!-- sigmoid -->
<g id="node3" class="node"><title>sigmoid</title>
<ellipse fill="none" stroke="black" cx="119" cy="-234" rx="39.7935" ry="18"/>
<text text-anchor="middle" x="119" y="-230.3" font-family="Times New Roman,serif" font-size="14.00">sigmoid</text>
</g>
<!-- Encoder CNN&#45;&gt;sigmoid -->
<g id="edge2" class="edge"><title>Encoder CNN&#45;&gt;sigmoid</title>
<path fill="none" stroke="black" d="M133.303,-287.697C131.187,-279.898 128.638,-270.509 126.282,-261.829"/>
<polygon fill="black" stroke="black" points="129.64,-260.838 123.643,-252.104 122.884,-262.672 129.64,-260.838"/>
</g>
<!-- Decoder CNN -->
<g id="node4" class="node"><title>Decoder CNN</title>
<ellipse fill="none" stroke="black" cx="119" cy="-162" rx="63.8893" ry="18"/>
<text text-anchor="middle" x="119" y="-158.3" font-family="Times New Roman,serif" font-size="14.00">Decoder CNN</text>
</g>
<!-- sigmoid&#45;&gt;Decoder CNN -->
<g id="edge3" class="edge"><title>sigmoid&#45;&gt;Decoder CNN</title>
<path fill="none" stroke="black" d="M119,-215.697C119,-207.983 119,-198.712 119,-190.112"/>
<polygon fill="black" stroke="black" points="122.5,-190.104 119,-180.104 115.5,-190.104 122.5,-190.104"/>
</g>
<!-- N^2 -->
<g id="node7" class="node"><title>N^2</title>
<ellipse fill="none" stroke="black" cx="27" cy="-90" rx="27" ry="18"/>
<text text-anchor="middle" x="27" y="-86.3" font-family="Times New Roman,serif" font-size="14.00">N^2</text>
</g>
<!-- sigmoid&#45;&gt;N^2 -->
<g id="edge9" class="edge"><title>sigmoid&#45;&gt;N^2</title>
<path fill="none" stroke="black" d="M92.8596,-220.349C76.9056,-211.29 57.4409,-197.594 46,-180 34.0479,-161.62 29.4705,-137.016 27.7847,-118.335"/>
<polygon fill="black" stroke="black" points="31.2602,-117.854 27.0923,-108.113 24.2762,-118.327 31.2602,-117.854"/>
</g>
<!-- Decoder CNN&#45;&gt;MSE(均方差) -->
<g id="edge4" class="edge"><title>Decoder CNN&#45;&gt;MSE(均方差)</title>
<path fill="none" stroke="black" d="M131.346,-144.055C137.485,-135.629 145.025,-125.28 151.81,-115.966"/>
<polygon fill="black" stroke="black" points="154.708,-117.932 157.768,-107.789 149.051,-113.81 154.708,-117.932"/>
</g>
<!-- loss -->
<g id="node6" class="node"><title>loss</title>
<ellipse fill="none" stroke="black" cx="54" cy="-18" rx="27" ry="18"/>
<text text-anchor="middle" x="54" y="-14.3" font-family="Times New Roman,serif" font-size="14.00">loss</text>
</g>
<!-- MSE(均方差)&#45;&gt;loss -->
<g id="edge6" class="edge"><title>MSE(均方差)&#45;&gt;loss</title>
<path fill="none" stroke="black" d="M144.543,-73.6382C126.088,-62.5015 101.134,-47.4428 82.0962,-35.9546"/>
<polygon fill="black" stroke="black" points="83.6504,-32.8046 73.2802,-30.6346 80.0337,-38.7979 83.6504,-32.8046"/>
</g>
<!-- loss&#45;&gt;Encoder CNN -->
<g id="edge7" class="edge"><title>loss&#45;&gt;Encoder CNN</title>
<path fill="none" stroke="green" d="M80.3734,-22.6425C126.755,-29.6473 219.845,-46.5872 239,-72 290.05,-139.729 207.345,-237.238 163.078,-281.525"/>
<polygon fill="green" stroke="green" points="160.495,-279.156 155.815,-288.661 165.401,-284.15 160.495,-279.156"/>
</g>
<!-- loss&#45;&gt;Decoder CNN -->
<g id="edge8" class="edge"><title>loss&#45;&gt;Decoder CNN</title>
<path fill="none" stroke="green" d="M61.4667,-35.3119C72.5947,-59.6222 93.6451,-105.609 106.964,-134.707"/>
<polygon fill="green" stroke="green" points="103.815,-136.236 111.159,-143.871 110.18,-133.322 103.815,-136.236"/>
</g>
<!-- N^2&#45;&gt;loss -->
<g id="edge10" class="edge"><title>N^2&#45;&gt;loss</title>
<path fill="none" stroke="black" d="M33.3986,-72.411C36.5136,-64.3352 40.3337,-54.4312 43.8346,-45.3547"/>
<polygon fill="black" stroke="black" points="47.1265,-46.5458 47.4597,-35.9562 40.5955,-44.0267 47.1265,-46.5458"/>
</g>
</g>
</svg>
